<svg id="ep7yv7y46aq81" xmlns="http://www.w3.org/2000/svg" xmlns:xlink="http://www.w3.org/1999/xlink" viewBox="0 0 878.640340 552.214680" shape-rendering="geometricPrecision" text-rendering="geometricPrecision"><style><![CDATA[#ep7yv7y46aq810_to {animation: ep7yv7y46aq810_to__to 1500ms linear 1 normal forwards}@keyframes ep7yv7y46aq810_to__to { 0% {transform: translate(711.784943px,407.777924px)} 33.333333% {transform: translate(711.784943px,407.777924px)} 53.333333% {transform: translate(678.941081px,376.393680px)} 66.666667% {transform: translate(646.914824px,372.782000px)} 100% {transform: translate(646.914824px,372.782000px)} }#ep7yv7y46aq812_to {animation: ep7yv7y46aq812_to__to 1500ms linear 1 normal forwards}@keyframes ep7yv7y46aq812_to__to { 0% {transform: translate(-299.560059px,166.771835px)} 33.333333% {transform: translate(-299.560059px,166.771835px)} 66.666667% {transform: translate(-310px,160px)} 100% {transform: translate(-308px,165px)} }#ep7yv7y46aq817_to {animation: ep7yv7y46aq817_to__to 1500ms linear 1 normal forwards}@keyframes ep7yv7y46aq817_to__to { 0% {transform: translate(-232.251205px,800.348694px)} 33.333333% {transform: translate(-232.251205px,800.348694px)} 66.666667% {transform: translate(-233px,792px)} 100% {transform: translate(-251px,796px)} }#ep7yv7y46aq818_to {animation: ep7yv7y46aq818_to__to 1500ms linear 1 normal forwards}@keyframes ep7yv7y46aq818_to__to { 0% {transform: translate(-160.679825px,-173.892654px)} 33.333333% {transform: translate(-160.679825px,-173.892654px)} 93.333333% {transform: translate(-173.314197px,-179.593843px)} 100% {transform: translate(-173.314197px,-179.593843px)} }#ep7yv7y46aq822_to {animation: ep7yv7y46aq822_to__to 1500ms linear 1 normal forwards}@keyframes ep7yv7y46aq822_to__to { 0% {transform: translate(-216.133621px,-54.178989px)} 33.333333% {transform: translate(-216.133621px,-54.178989px)} 66.666667% {transform: translate(-216.133621px,-61px)} 100% {transform: translate(-216.133621px,-55px)} }#ep7yv7y46aq825_to {animation: ep7yv7y46aq825_to__to 1500ms linear 1 normal forwards}@keyframes ep7yv7y46aq825_to__to { 0% {transform: translate(-256.901794px,329.290000px)} 33.333333% {transform: translate(-256.901794px,329.290000px)} 66.666667% {transform: translate(-256.901794px,324px)} 100% {transform: translate(-256.901794px,329px)} }#ep7yv7y46aq826_to {animation: ep7yv7y46aq826_to__to 1500ms linear 1 normal forwards}@keyframes ep7yv7y46aq826_to__to { 0% {transform: translate(-160.679825px,-173.892654px)} 33.333333% {transform: translate(-160.679825px,-173.892654px)} 66.666667% {transform: translate(-173.076573px,-170.095826px)} 86.666667% {transform: translate(-171.472722px,-177.449036px)} 100% {transform: translate(-171.472722px,-177.449036px)} }#ep7yv7y46aq827_tr {animation: ep7yv7y46aq827_tr__tr 1500ms linear 1 normal forwards}@keyframes ep7yv7y46aq827_tr__tr { 0% {transform: translate(-22.029341px,639.327148px) rotate(-77.090000deg)} 33.333333% {transform: translate(-22.029341px,639.327148px) rotate(-77.090000deg)} 66.666667% {transform: translate(-22.029341px,639.327148px) rotate(-79deg)} 100% {transform: translate(-22.029341px,639.327148px) rotate(-77.465713deg)} }#ep7yv7y46aq828_to {animation: ep7yv7y46aq828_to__to 1500ms linear 1 normal forwards}@keyframes ep7yv7y46aq828_to__to { 0% {transform: translate(28.646200px,730.360000px)} 33.333333% {transform: translate(28.646200px,730.360000px)} 100% {transform: translate(28.646200px,725px)} }#ep7yv7y46aq829_to {animation: ep7yv7y46aq829_to__to 1500ms linear 1 normal forwards}@keyframes ep7yv7y46aq829_to__to { 0% {transform: translate(258.721481px,274.858650px)} 33.333333% {transform: translate(258.721481px,274.858650px)} 53.333333% {transform: translate(258.066273px,222.943073px)} 80% {transform: translate(261.059519px,274.060310px)} 100% {transform: translate(261.059519px,274.060310px)} }#ep7yv7y46aq830_to {animation: ep7yv7y46aq830_to__to 1500ms linear 1 normal forwards}@keyframes ep7yv7y46aq830_to__to { 0% {transform: translate(-376.386993px,445.191864px)} 33.333333% {transform: translate(-376.386993px,445.191864px)} 66.666667% {transform: translate(-380px,445px)} 86.666667% {transform: translate(-374px,451px)} 100% {transform: translate(-374px,451px)} }#ep7yv7y46aq831_to {animation: ep7yv7y46aq831_to__to 1500ms linear 1 normal forwards}@keyframes ep7yv7y46aq831_to__to { 0% {transform: translate(-295.282928px,565.611877px)} 33.333333% {transform: translate(-295.282928px,565.611877px)} 66.666667% {transform: translate(-300px,557px)} 86.666667% {transform: translate(-291px,564px)} 100% {transform: translate(-291px,564px)} }#ep7yv7y46aq832_to {animation: ep7yv7y46aq832_to__to 1500ms linear 1 normal forwards}@keyframes ep7yv7y46aq832_to__to { 0% {transform: translate(276px,369px)} 33.333333% {transform: translate(276px,369px)} 66.666667% {transform: translate(277px,371px)} 86.666667% {transform: translate(276px,369px)} 100% {transform: translate(276px,369px)} }#ep7yv7y46aq832_tr {animation: ep7yv7y46aq832_tr__tr 1500ms linear 1 normal forwards}@keyframes ep7yv7y46aq832_tr__tr { 0% {transform: rotate(0deg)} 33.333333% {transform: rotate(0deg)} 66.666667% {transform: rotate(-22.652766deg)} 86.666667% {transform: rotate(-0.261398deg)} 100% {transform: rotate(-0.261398deg)} }#ep7yv7y46aq833_to {animation: ep7yv7y46aq833_to__to 1500ms linear 1 normal forwards}@keyframes ep7yv7y46aq833_to__to { 0% {transform: translate(260.656281px,383.669678px)} 33.333333% {transform: translate(260.656281px,383.669678px)} 66.666667% {transform: translate(257px,383.669678px)} 86.666667% {transform: translate(261px,383.669678px)} 100% {transform: translate(261px,383.669678px)} }#ep7yv7y46aq834_tr {animation: ep7yv7y46aq834_tr__tr 1500ms linear 1 normal forwards}@keyframes ep7yv7y46aq834_tr__tr { 0% {transform: translate(256.295013px,371.676239px) rotate(0deg)} 33.333333% {transform: translate(256.295013px,371.676239px) rotate(0deg)} 66.666667% {transform: translate(256.295013px,371.676239px) rotate(14deg)} 86.666667% {transform: translate(256.295013px,371.676239px) rotate(0deg)} 100% {transform: translate(256.295013px,371.676239px) rotate(0deg)} }#ep7yv7y46aq836_tr {animation: ep7yv7y46aq836_tr__tr 1500ms linear 1 normal forwards}@keyframes ep7yv7y46aq836_tr__tr { 0% {transform: translate(282.462494px,371.676239px) rotate(0deg)} 33.333333% {transform: translate(282.462494px,371.676239px) rotate(0deg)} 66.666667% {transform: translate(282.462494px,371.676239px) rotate(-39.736189deg)} 86.666667% {transform: translate(282.462494px,371.676239px) rotate(0deg)} 100% {transform: translate(282.462494px,371.676239px) rotate(0deg)} }#ep7yv7y46aq843_to {animation: ep7yv7y46aq843_to__to 1500ms linear 1 normal forwards}@keyframes ep7yv7y46aq843_to__to { 0% {transform: translate(-160.679825px,-173.892654px)} 33.333333% {transform: translate(-160.679825px,-173.892654px)} 66.666667% {transform: translate(-151.868361px,-178.575021px)} 100% {transform: translate(-144.825913px,-178.575021px)} }#ep7yv7y46aq844_to {animation: ep7yv7y46aq844_to__to 1500ms linear 1 normal forwards}@keyframes ep7yv7y46aq844_to__to { 0% {transform: translate(-349.785950px,326.145294px)} 33.333333% {transform: translate(-349.785950px,326.145294px)} 66.666667% {transform: translate(-334.895969px,301.596441px)} 100% {transform: translate(-314.199419px,317.407710px)} }#ep7yv7y46aq845_to {animation: ep7yv7y46aq845_to__to 1500ms linear 1 normal forwards}@keyframes ep7yv7y46aq845_to__to { 0% {transform: translate(-382.961365px,404.657562px)} 33.333333% {transform: translate(-382.961365px,404.657562px)} 66.666667% {transform: translate(-372.057771px,392.200988px)} 100% {transform: translate(-357.156628px,395.718328px)} }#ep7yv7y46aq846_to {animation: ep7yv7y46aq846_to__to 1500ms linear 1 normal forwards}@keyframes ep7yv7y46aq846_to__to { 0% {transform: translate(59.459099px,271.293313px)} 33.333333% {transform: translate(59.459099px,271.293313px)} 80% {transform: translate(61.083700px,252.293313px)} 100% {transform: translate(67.083700px,251.293313px)} }#ep7yv7y46aq849_to {animation: ep7yv7y46aq849_to__to 1500ms linear 1 normal forwards}@keyframes ep7yv7y46aq849_to__to { 0% {transform: translate(85.626549px,293.441345px)} 33.333333% {transform: translate(85.626549px,293.441345px)} 66.666667% {transform: translate(85.626549px,283.629333px)} 100% {transform: translate(85.626549px,283.629333px)} }#ep7yv7y46aq849_tr {animation: ep7yv7y46aq849_tr__tr 1500ms linear 1 normal forwards}@keyframes ep7yv7y46aq849_tr__tr { 0% {transform: rotate(0deg)} 33.333333% {transform: rotate(0deg)} 100% {transform: rotate(-15deg)} }#ep7yv7y46aq852_to {animation: ep7yv7y46aq852_to__to 1500ms linear 1 normal forwards}@keyframes ep7yv7y46aq852_to__to { 0% {transform: translate(-160.679825px,-173.892654px)} 33.333333% {transform: translate(-160.679825px,-173.892654px)} 66.666667% {transform: translate(-148.385571px,-184.440676px)} 100% {transform: translate(-129.305101px,-180.923336px)} }#ep7yv7y46aq853_to {animation: ep7yv7y46aq853_to__to 1500ms linear 1 normal forwards}@keyframes ep7yv7y46aq853_to__to { 0% {transform: translate(-418.953949px,217.605255px)} 33.333333% {transform: translate(-418.953949px,217.605255px)} 66.666667% {transform: translate(-408.952478px,208.811812px)} 100% {transform: translate(-399.340716px,210.446342px)} }#ep7yv7y46aq854_to {animation: ep7yv7y46aq854_to__to 1500ms linear 1 normal forwards}@keyframes ep7yv7y46aq854_to__to { 0% {transform: translate(254.023788px,146.568703px)} 33.333333% {transform: translate(254.023788px,146.568703px)} 66.666667% {transform: translate(269.378514px,113.819670px)} 93.333333% {transform: translate(276.277154px,215.903747px)} 100% {transform: translate(276.277154px,215.903747px)} }#ep7yv7y46aq854_tr {animation: ep7yv7y46aq854_tr__tr 1500ms linear 1 normal forwards}@keyframes ep7yv7y46aq854_tr__tr { 0% {transform: rotate(0deg)} 66.666667% {transform: rotate(0deg)} 93.333333% {transform: rotate(15deg)} 100% {transform: rotate(15deg)} }#ep7yv7y46aq860_to {animation: ep7yv7y46aq860_to__to 1500ms linear 1 normal forwards}@keyframes ep7yv7y46aq860_to__to { 0% {transform: translate(740.516113px,259.681595px)} 33.333333% {transform: translate(740.516113px,259.681595px)} 66.666667% {transform: translate(642.989726px,226.657924px)} 100% {transform: translate(633.334638px,227.290988px)} }#ep7yv7y46aq860_tr {animation: ep7yv7y46aq860_tr__tr 1500ms linear 1 normal forwards}@keyframes ep7yv7y46aq860_tr__tr { 0% {transform: rotate(0deg)} 33.333333% {transform: rotate(0deg)} 66.666667% {transform: rotate(-0.289095deg)} 93.333333% {transform: rotate(-7.428063deg)} 100% {transform: rotate(-7.428063deg)} }]]></style><path id="ep7yv7y46aq82" d="M998.542780,726.107340L255.909200,726.107340C242.156813,726.107340,231.008300,714.958827,231.008300,701.206440L231.008300,701.206440Q634.815100,654.276360,1023.443690,701.206440L1023.443690,701.206440C1023.443684,714.958829,1012.295169,726.107340,998.542780,726.107340Z" transform="matrix(1 0 0 1 -160.67982482910156 -173.89265441894531)" fill="rgb(204,204,204)" stroke="none" stroke-width="1"/><path id="ep7yv7y46aq83" d="M1023.443690,702.671170L231.008300,701.206410L322.848790,546.674190L323.288200,545.941810L323.288200,205.370350C323.287502,197.021734,326.603668,189.014855,332.507032,183.111492C338.410395,177.208128,346.417274,173.891962,354.765890,173.892660L895.291810,173.892660C903.640426,173.891962,911.647305,177.208128,917.550668,183.111492C923.454032,189.014855,926.770198,197.021734,926.769500,205.370350L926.769500,548.285350Z" transform="matrix(1 0 0 1 -160.67982482910156 -173.89265441894531)" fill="rgb(230,230,230)" stroke="none" stroke-width="1"/><path id="ep7yv7y46aq84" d="M354.048170,195.864070C348.388050,195.870419,343.801199,200.457270,343.794850,206.117390L343.794850,516.646600C343.801452,522.306616,348.388154,526.893318,354.048170,526.899920L900.403810,526.899920C906.063723,526.893071,910.650281,522.306513,910.657130,516.646600L910.657130,206.117390C910.650534,200.457372,906.063828,195.870666,900.403810,195.864070Z" transform="matrix(1 0 0 1 -160.67982482910156 -173.89265441894531)" fill="rgb(255,255,255)" stroke="none" stroke-width="1"/><path id="ep7yv7y46aq85" d="M357.638860,567.913210C355.923740,567.916123,354.366147,568.913965,353.646530,570.470820L325.347620,631.990760C324.721556,633.351223,324.831498,634.936871,325.639328,636.197913C326.447158,637.458955,327.841627,638.221730,329.339230,638.221760L924.450370,638.221760C925.973336,638.221743,927.387679,637.433067,928.188185,636.137453C928.988692,634.841839,929.061181,633.224087,928.379760,631.862070L897.619760,570.342130C896.879527,568.850143,895.355886,567.908336,893.690370,567.913260Z" transform="matrix(1 0 0 1 -160.67982482910156 -173.89265441894531)" fill="rgb(204,204,204)" stroke="none" stroke-width="1"/><circle id="ep7yv7y46aq86" r="6.591420" transform="matrix(1 0 0 1 464.34899999999999 10.25330000000000)" fill="rgb(255,255,255)" stroke="none" stroke-width="1"/><path id="ep7yv7y46aq87" d="M804.227150,554.236630C803.743582,554.237238,803.320321,554.561602,803.194000,555.028380L801.465400,561.448830C801.378782,561.770283,801.446724,562.113738,801.649207,562.378001C801.851690,562.642265,802.165642,562.797223,802.498560,562.797220L835.372500,562.797220C835.718628,562.797221,836.043370,562.629764,836.244086,562.347775C836.444803,562.065787,836.496691,561.704115,836.383350,561.377070L834.161000,554.956630C834.011656,554.525773,833.605796,554.236793,833.149790,554.236630Z" transform="matrix(1 0 0 1 -160.67982482910156 -173.89265441894531)" fill="rgb(204,204,204)" stroke="none" stroke-width="1"/><path id="ep7yv7y46aq88" d="M566.534270,649.939800C564.548480,649.942302,562.810347,651.274326,562.291620,653.191170L555.193110,679.556850C554.837360,680.876901,555.116338,682.287330,555.947840,683.372547C556.779343,684.457764,558.068613,685.094098,559.435760,685.094050L694.433320,685.094050C695.854705,685.094059,697.188268,684.406397,698.012522,683.248407C698.836777,682.090417,699.049862,680.605203,698.584430,679.262180L689.458280,652.896500C688.845005,651.127176,687.178335,649.940470,685.305740,649.939800Z" transform="matrix(1 0 0 1 -160.67982482910156 -173.89265441894531)" fill="rgb(204,204,204)" stroke="none" stroke-width="1"/><polygon id="ep7yv7y46aq89" points="766.090000,366.922000 766.090000,372.782000 162.169000,372.782000 162.623000,372.049000 162.623000,366.922000 766.090000,366.922000" fill="rgb(204,204,204)" stroke="none" stroke-width="1"/><g id="ep7yv7y46aq810_to" transform="translate(711.784943,407.777924)"><g id="ep7yv7y46aq810" transform="translate(-711.784943,-407.777924)"><path id="ep7yv7y46aq811" d="M852.227150,554.236630C851.743582,554.237238,851.320321,554.561602,851.194000,555.028380L849.465400,561.448830C849.378782,561.770283,849.446724,562.113738,849.649207,562.378001C849.851690,562.642265,850.165642,562.797223,850.498560,562.797220L883.372500,562.797220C883.718628,562.797221,884.043370,562.629764,884.244086,562.347775C884.444803,562.065787,884.496691,561.704115,884.383350,561.377070L882.161000,554.956630C882.011656,554.525773,881.605796,554.236793,881.149790,554.236630Z" transform="matrix(1 0 0 1 -160.67982482910156 -173.89265441894531)" fill="rgb(204,204,204)" stroke="none" stroke-width="1"/><g id="ep7yv7y46aq812_to" transform="translate(-299.560059,166.771835)"><ellipse id="ep7yv7y46aq812" rx="6.760070" ry="21.533700" transform="rotate(-20.917830) scale(1,1) translate(853.283000,546.503000)" fill="rgb(47,46,65)" stroke="none" stroke-width="1"/></g><circle id="ep7yv7y46aq813" r="43.067300" transform="matrix(0.98708748817444 -0.16018216311932 0.16018216311932 0.98708748817444 723.41020050458621 414.13234165504571)" fill="rgb(47,46,65)" stroke="none" stroke-width="1"/><polygon id="ep7yv7y46aq814" points="743.035000,447.932000 729.952000,447.932000 732.512000,476.005000 743.058000,473.140000 743.035000,447.932000" fill="rgb(47,46,65)" stroke="none" stroke-width="1"/><polygon id="ep7yv7y46aq815" points="714.512000,448.005000 701.428000,448.005000 703.988000,476.078000 714.058000,473.140000 714.512000,448.005000" fill="rgb(47,46,65)" stroke="none" stroke-width="1"/><ellipse id="ep7yv7y46aq816" rx="10.903100" ry="4.088680" transform="matrix(0.99733787775040 -0.07291861623526 0.07291861623526 0.99733787775040 703.31814201179156 473.31938260667027)" fill="rgb(47,46,65)" stroke="none" stroke-width="1"/><g id="ep7yv7y46aq817_to" transform="translate(-232.251205,800.348694)"><ellipse id="ep7yv7y46aq817" rx="21.533700" ry="6.760070" transform="rotate(-53.549899) scale(1,1) translate(929.598000,558.041000)" fill="rgb(47,46,65)" stroke="none" stroke-width="1"/></g><g id="ep7yv7y46aq818_to" transform="translate(-160.679825,-173.892654)"><path id="ep7yv7y46aq818" d="M925.866380,547.973340C929.343860,532.399550,918.227710,516.662880,901.037770,512.824500C883.847830,508.986120,867.093560,518.499580,863.616080,534.073370C860.138600,549.647160,871.531000,555.391030,888.720940,559.229370C905.910880,563.067710,922.388910,563.547160,925.866380,547.973340Z" transform="translate(0,0)" fill="rgb(242,242,242)" stroke="none" stroke-width="1"/></g><ellipse id="ep7yv7y46aq819" rx="10.903100" ry="4.088680" transform="matrix(0.99733787775040 -0.07291861623526 0.07291861623526 0.99733787775040 732.01014991412319 473.25041874231397)" fill="rgb(47,46,65)" stroke="none" stroke-width="1"/></g></g><path id="ep7yv7y46aq820" d="M665.161200,595.032250L667.737670,595.032250L662.584670,250.644010L660.008190,250.644010L660.110980,257.514610L602.364320,257.514610L602.467100,250.644010L599.890630,250.644010L594.737630,595.032250L597.314110,595.032250L597.648220,572.702850L664.827050,572.702850ZM661.447450,346.832250L601.027900,346.832250L601.657530,304.749910L660.817810,304.749910ZM661.486030,349.408730L662.115660,391.491060L600.359660,391.491060L600.989300,349.408730ZM662.154240,394.067540L662.783880,436.149880L599.691470,436.149880L600.321110,394.067540ZM662.822450,438.726350L663.452090,480.808690L599.023260,480.808690L599.652900,438.726350ZM663.490660,483.385170L664.120300,525.467560L598.355000,525.467560L598.984640,483.385170ZM660.149600,260.091090L660.779240,302.173430L601.696110,302.173430L602.325750,260.091090ZM597.686830,570.126370L598.316470,528.044030L664.158880,528.044030L664.788520,570.126370Z" transform="matrix(1 0 0 1 -160.67982482910156 -173.89265441894531)" fill="rgb(63,61,86)" stroke="none" stroke-width="1"/><circle id="ep7yv7y46aq821" r="42.012300" transform="matrix(1 0 0 1 457.79399999999998 153.35800000000000)" fill="rgb(47,46,65)" stroke="none" stroke-width="1"/><g id="ep7yv7y46aq822_to" transform="translate(-216.133621,-54.178989)"><rect id="ep7yv7y46aq822" width="12.763200" height="22.867500" rx="0" ry="0" transform="rotate(-10.261059) scale(1,1) translate(632.562000,357.238000)" fill="rgb(47,46,65)" stroke="none" stroke-width="1"/></g><rect id="ep7yv7y46aq823" width="12.763200" height="22.867500" rx="0" ry="0" transform="matrix(0.98400634527206 -0.17813348770142 0.17813348770142 0.98400634527206 444.82943733143816 189.21196699136505)" fill="rgb(47,46,65)" stroke="none" stroke-width="1"/><ellipse id="ep7yv7y46aq824" rx="10.636000" ry="3.988530" transform="matrix(0.76310771703720 -0.64627128839493 0.64627128839493 0.76310771703720 452.99244131582975 213.40605799561735)" fill="rgb(47,46,65)" stroke="none" stroke-width="1"/><g id="ep7yv7y46aq825_to" transform="translate(-256.901794,329.290000)"><ellipse id="ep7yv7y46aq825" rx="10.636100" ry="3.988530" transform="rotate(-40.261060) skewX(0) skewY(0) scale(1,1) translate(638.267000,382.846000)" fill="rgb(47,46,65)" stroke="none" stroke-width="1"/></g><g id="ep7yv7y46aq826_to" transform="translate(-160.679825,-173.892654)"><path id="ep7yv7y46aq826" d="M651.616080,281.545350C652.247850,265.991760,638.842950,252.817750,621.675280,252.120420C604.507610,251.423090,590.078360,263.466420,589.446550,279.020020C588.814740,294.573620,600.748460,298.107480,617.916100,298.804870C635.083740,299.502260,650.984300,297.098930,651.616080,281.545350Z" transform="translate(0,0)" fill="rgb(108,99,255)" stroke="none" stroke-width="1"/></g><g id="ep7yv7y46aq827_tr" transform="translate(-22.029341,639.327148) rotate(-77.090000)"><ellipse id="ep7yv7y46aq827" rx="6.594480" ry="21.006200" transform="skewX(-0) skewY(0) scale(1,1) translate(579.682000,319.596000)" fill="rgb(47,46,65)" stroke="none" stroke-width="1"/></g><g id="ep7yv7y46aq828_to" transform="translate(28.646200,730.360000)"><ellipse id="ep7yv7y46aq828" rx="6.594480" ry="21.006200" transform="rotate(-77.089897) skewX(-0) skewY(0) scale(1,1) translate(662.150000,333.311000)" fill="rgb(47,46,65)" stroke="none" stroke-width="1"/></g><g id="ep7yv7y46aq829_to" transform="translate(258.721481,274.858650)"><g id="ep7yv7y46aq829" transform="translate(-258.721481,-274.858650)"><g id="ep7yv7y46aq830_to" transform="translate(-376.386993,445.191864)"><ellipse id="ep7yv7y46aq830" rx="6.760070" ry="21.533700" transform="rotate(-64.625741) scale(1,1) translate(381.550000,480.065000)" fill="rgb(47,46,65)" stroke="none" stroke-width="1"/></g><g id="ep7yv7y46aq831_to" transform="translate(-295.282928,565.611877)"><ellipse id="ep7yv7y46aq831" rx="21.533700" ry="6.760070" transform="rotate(-69.082169) skewX(0) skewY(0) scale(1,1) translate(469.866000,467.526000)" fill="rgb(47,46,65)" stroke="none" stroke-width="1"/></g><g id="ep7yv7y46aq832_to" transform="translate(276,369)"><g id="ep7yv7y46aq832_tr" transform="rotate(0)"><ellipse id="ep7yv7y46aq832" rx="10.903100" ry="4.088680" transform="translate(10.903100,13.972925)" fill="rgb(47,46,65)" stroke="none" stroke-width="1"/></g></g><g id="ep7yv7y46aq833_to" transform="translate(260.656281,383.669678)"><ellipse id="ep7yv7y46aq833" rx="10.903100" ry="4.088680" transform="translate(-0.000281,0.000322)" fill="rgb(47,46,65)" stroke="none" stroke-width="1"/></g><g id="ep7yv7y46aq834_tr" transform="translate(256.295013,371.676239) rotate(0)"><rect id="ep7yv7y46aq834" width="13.083700" height="23.441700" rx="0" ry="0" transform="translate(-6.542013,-11.721239)" fill="rgb(47,46,65)" stroke="none" stroke-width="1"/></g><circle id="ep7yv7y46aq835" r="43.067400" transform="matrix(0.16018240153790 -0.98708742856979 0.98708742856979 0.16018240153790 269.37851403726643 326.15531294029950)" fill="rgb(47,46,65)" stroke="none" stroke-width="1"/><g id="ep7yv7y46aq836_tr" transform="translate(282.462494,371.676239) rotate(0)"><rect id="ep7yv7y46aq836" width="13.083700" height="23.441700" rx="0" ry="0" transform="translate(-6.541494,-11.721239)" fill="rgb(47,46,65)" stroke="none" stroke-width="1"/></g><path id="ep7yv7y46aq837" d="M388.281860,459.997000C384.804380,444.423210,395.920530,428.686540,413.110470,424.848160C430.300410,421.009780,447.054690,430.523240,450.532160,446.097040C454.009630,461.670840,442.617250,467.414690,425.427310,471.253040C408.237370,475.091390,391.759340,475.570780,388.281860,459.997000Z" transform="matrix(1 0 0 1 -160.67982482910156 -173.89265441894531)" fill="rgb(108,99,255)" stroke="none" stroke-width="1"/></g></g><circle id="ep7yv7y46aq838" r="43.067300" transform="matrix(1 0 0 1 82.90080000000000 369.76299999999998)" fill="rgb(47,46,65)" stroke="none" stroke-width="1"/><rect id="ep7yv7y46aq839" width="13.083700" height="23.441700" rx="0" ry="0" transform="matrix(1 0 0 1 63.27520000000000 403.56299999999999)" fill="rgb(47,46,65)" stroke="none" stroke-width="1"/><rect id="ep7yv7y46aq840" width="13.083700" height="23.441700" rx="0" ry="0" transform="matrix(1 0 0 1 89.44270000000000 403.56299999999999)" fill="rgb(47,46,65)" stroke="none" stroke-width="1"/><ellipse id="ep7yv7y46aq841" rx="10.903100" ry="4.088680" transform="matrix(1 0 0 1 74.17829999999999 427.27699999999999)" fill="rgb(47,46,65)" stroke="none" stroke-width="1"/><ellipse id="ep7yv7y46aq842" rx="10.903100" ry="4.088680" transform="matrix(1 0 0 1 100.34600000000000 426.73200000000003)" fill="rgb(47,46,65)" stroke="none" stroke-width="1"/><g id="ep7yv7y46aq843_to" transform="translate(-160.679825,-173.892654)"><path id="ep7yv7y46aq843" d="M201.803840,503.604490C198.326360,488.030700,209.442510,472.294060,226.632450,468.455680C243.822390,464.617300,260.576660,474.130790,264.054140,489.704580C267.531620,505.278370,256.139220,511.022270,238.949280,514.860580C221.759340,518.698890,205.281370,519.178340,201.803840,503.604490Z" transform="translate(0,0)" fill="rgb(230,230,230)" stroke="none" stroke-width="1"/></g><g id="ep7yv7y46aq844_to" transform="translate(-349.785950,326.145294)"><ellipse id="ep7yv7y46aq844" rx="21.533700" ry="6.760070" transform="rotate(-69.082169) skewX(0) skewY(0) scale(1,1.000073) translate(268.669000,387.383000)" fill="rgb(47,46,65)" stroke="none" stroke-width="1"/></g><g id="ep7yv7y46aq845_to" transform="translate(-382.961365,404.657562)"><circle id="ep7yv7y46aq845" r="43.067400" transform="rotate(-80.782516) scale(1,1) translate(228.861000,419.905000)" fill="rgb(47,46,65)" stroke="none" stroke-width="1"/></g><g id="ep7yv7y46aq846_to" transform="translate(59.459099,271.293313)"><g id="ep7yv7y46aq846" transform="translate(-61.639700,-271.105325)"><rect id="ep7yv7y46aq847" width="13.083700" height="23.441700" rx="0" ry="0" transform="matrix(1 0 0 1 48.55600000000000 279.81200000000001)" fill="rgb(47,46,65)" stroke="none" stroke-width="1"/><ellipse id="ep7yv7y46aq848" rx="10.903100" ry="4.088680" transform="matrix(1 0 0 1 59.45910000000000 303.52699999999999)" fill="rgb(47,46,65)" stroke="none" stroke-width="1"/></g></g><g id="ep7yv7y46aq849_to" transform="translate(85.626549,293.441345)"><g id="ep7yv7y46aq849_tr" transform="rotate(0)"><g id="ep7yv7y46aq849" transform="translate(-85.626549,-293.441345)"><rect id="ep7yv7y46aq850" width="13.083700" height="23.441700" rx="0" ry="0" transform="matrix(1 0 0 1 74.72340000000000 279.81200000000001)" fill="rgb(47,46,65)" stroke="none" stroke-width="1"/><ellipse id="ep7yv7y46aq851" rx="10.903100" ry="4.088680" transform="matrix(1 0 0 1 85.62660000000000 302.98200000000003)" fill="rgb(47,46,65)" stroke="none" stroke-width="1"/></g></g></g><g id="ep7yv7y46aq852_to" transform="translate(-160.679825,-173.892654)"><path id="ep7yv7y46aq852" d="M187.084660,379.854000C183.607180,364.280210,194.723330,348.543540,211.913270,344.705160C229.103210,340.866780,245.857490,350.380240,249.334960,365.954040C252.812430,381.527840,241.420050,387.271690,224.230110,391.110040C207.040170,394.948390,190.562140,395.427850,187.084660,379.854000Z" transform="translate(0,0)" fill="rgb(108,99,255)" stroke="none" stroke-width="1"/></g><g id="ep7yv7y46aq853_to" transform="translate(-418.953949,217.605255)"><ellipse id="ep7yv7y46aq853" rx="6.760070" ry="21.533700" transform="rotate(-64.625741) scale(1,1) translate(180.353000,399.922000)" fill="rgb(47,46,65)" stroke="none" stroke-width="1"/></g><g id="ep7yv7y46aq854_to" transform="translate(254.023788,146.568703)"><g id="ep7yv7y46aq854_tr" transform="rotate(0)"><g id="ep7yv7y46aq854" transform="translate(-254.023788,-146.568703)"><path id="ep7yv7y46aq855" d="M271.203590,255.461350C269.547485,255.463158,268.205398,256.805245,268.203590,258.461350L268.203590,382.461350C268.205398,384.117455,269.547485,385.459542,271.203590,385.461350L558.203590,385.461350C559.859695,385.459542,561.201782,384.117455,561.203590,382.461350L561.203590,258.461350C561.201782,256.805245,559.859695,255.463158,558.203590,255.461350Z" transform="matrix(1 0 0 1 -160.67982482910156 -173.89265441894531)" fill="rgb(108,99,255)" stroke="none" stroke-width="1"/><circle id="ep7yv7y46aq856" r="29.121100" transform="matrix(1 0 0 1 188.01800000000000 146.56899999999999)" fill="rgb(255,255,255)" stroke="none" stroke-width="1"/><path id="ep7yv7y46aq857" d="M414.423430,316.586830C412.564813,316.617383,411.074110,318.132792,411.074110,319.991660C411.074110,321.850528,412.564813,323.365937,414.423430,323.396490L506.369090,323.396490C507.586146,323.417438,508.721831,322.787165,509.347949,321.743307C509.974067,320.699449,509.995390,319.400768,509.403880,318.336918C508.812369,317.273067,507.697987,316.605849,506.480900,316.586830Q506.424990,316.585880,506.369090,316.586830Z" transform="matrix(1 0 0 1 -160.67982482910156 -173.89265441894531)" fill="rgb(255,255,255)" stroke="none" stroke-width="1"/><path id="ep7yv7y46aq858" d="M414.423430,337.253420C412.564813,337.283973,411.074110,338.799382,411.074110,340.658250C411.074110,342.517118,412.564813,344.032527,414.423430,344.063080L506.369090,344.063080C507.586146,344.084028,508.721831,343.453755,509.347949,342.409897C509.974067,341.366039,509.995390,340.067358,509.403880,339.003508C508.812369,337.939657,507.697987,337.272439,506.480900,337.253420Q506.424990,337.252420,506.369090,337.253420Z" transform="matrix(1 0 0 1 -160.67982482910156 -173.89265441894531)" fill="rgb(255,255,255)" stroke="none" stroke-width="1"/><path id="ep7yv7y46aq859" d="M414.423430,296.859630C412.564813,296.890183,411.074110,298.405592,411.074110,300.264460C411.074110,302.123328,412.564813,303.638737,414.423430,303.669290L460.339000,303.669290C461.556079,303.690273,462.691801,303.060007,463.317941,302.016133C463.944080,300.972260,463.965402,299.673550,463.373867,298.609685C462.782333,297.545820,461.667912,296.878611,460.450800,296.859630Q460.394900,296.858680,460.339000,296.859630Z" transform="matrix(1 0 0 1 -160.67982482910156 -173.89265441894531)" fill="rgb(255,255,255)" stroke="none" stroke-width="1"/></g></g></g><g id="ep7yv7y46aq860_to" transform="translate(740.516113,259.681595)"><g id="ep7yv7y46aq860_tr" transform="rotate(0)"><g id="ep7yv7y46aq860" transform="translate(-740.516113,-259.681595)"><path id="ep7yv7y46aq861" d="M1004.856530,552.434380L769.111000,519.753300C765.284191,519.218070,762.612555,515.686494,763.138510,511.858400L789.640400,320.686620C790.175471,316.859718,793.707159,314.187997,797.535300,314.714130L1033.280810,347.395220C1037.107715,347.930286,1039.779439,351.461978,1039.253300,355.290120L1012.751430,546.461900C1012.216205,550.288711,1008.684624,552.960347,1004.856530,552.434380Z" transform="matrix(1 0 0 1 -160.67982482910156 -173.89265441894531)" fill="rgb(108,99,255)" stroke="none" stroke-width="1"/><rect id="ep7yv7y46aq862" width="22" height="22" rx="0" ry="0" transform="matrix(0.99053001403809 0.13731999695301 -0.13731999695301 0.99053001403809 640.87642489129303 155.51749764944611)" fill="rgb(63,61,86)" stroke="none" stroke-width="1"/><polygon id="ep7yv7y46aq863" style="isolation:isolate" points="759.722000,318.879000 718.630000,313.183000 742.864000,286.679000 744.609000,284.770000 745.481000,283.815000 746.872000,287.235000 759.722000,318.879000" opacity="0.2" fill="rgb(0,0,0)" stroke="none" stroke-width="1"/><circle id="ep7yv7y46aq864" r="18" transform="matrix(1 0 0 1 761.18600000000004 224.18400000000000)" fill="rgb(255,255,255)" stroke="none" stroke-width="1"/><path id="ep7yv7y46aq865" d="M987.414640,502.062080L883.317900,487.631290L907.551690,461.127290L909.295950,459.217810L940.875160,424.677690C941.978680,423.628273,943.475889,423.096771,944.994091,423.215488C946.512293,423.334206,947.908686,424.091976,948.835670,425.300170C948.951074,425.468167,949.055653,425.643349,949.148770,425.824650Z" transform="matrix(1 0 0 1 -160.67982482910156 -173.89265441894531)" fill="rgb(255,255,255)" stroke="none" stroke-width="1"/><path id="ep7yv7y46aq866" d="M920.402140,492.772230L800.047670,476.087640C799.896701,476.068705,799.747799,476.035900,799.602850,475.989640L870.193380,385.283380C871.073962,384.131292,872.506340,383.542143,873.942684,383.741260C875.379028,383.940377,876.597125,384.896955,877.131100,386.245140L906.160420,457.707460L907.551690,461.127250Z" transform="matrix(1 0 0 1 -160.67982482910156 -173.89265441894531)" fill="rgb(255,255,255)" stroke="none" stroke-width="1"/></g></g></g></svg>