<svg id="ehp0hnk89mid1" xmlns="http://www.w3.org/2000/svg" xmlns:xlink="http://www.w3.org/1999/xlink" viewBox="0 0 888 651.931750" shape-rendering="geometricPrecision" text-rendering="geometricPrecision"><style><![CDATA[#ehp0hnk89mid14_to {animation: ehp0hnk89mid14_to__to 3000ms linear infinite normal forwards}@keyframes ehp0hnk89mid14_to__to { 0% {transform: translate(218.520781px,325.965875px)} 30% {transform: translate(195.040006px,313.388032px)} 56.666667% {transform: translate(174.689780px,302.445215px)} 70% {transform: translate(174.689780px,302.336006px)} 83.333333% {transform: translate(235.652647px,329.720659px)} 100% {transform: translate(235.652647px,329.720659px)} }#ehp0hnk89mid14_ts {animation: ehp0hnk89mid14_ts__ts 3000ms linear infinite normal forwards}@keyframes ehp0hnk89mid14_ts__ts { 0% {transform: rotate(180.258795deg) scale(-0.423221,0.396756)} 30% {transform: rotate(180.258795deg) scale(-0.556199,0.521417)} 56.666667% {transform: rotate(180.258795deg) scale(-0.673230,0.631130)} 70% {transform: rotate(180.258795deg) scale(-0.670000,0.630000)} 83.333333% {transform: rotate(180.258795deg) scale(-0.294699,0.276270)} 100% {transform: rotate(180.258795deg) scale(-0.294699,0.276270)} }#ehp0hnk89mid14 {animation: ehp0hnk89mid14_c_o 3000ms linear infinite normal forwards}@keyframes ehp0hnk89mid14_c_o { 0% {opacity: 0} 23.333333% {opacity: 0} 36.666667% {opacity: 0.500000} 56.666667% {opacity: 1} 70% {opacity: 1} 83.333333% {opacity: 0} 100% {opacity: 0} }#ehp0hnk89mid18_to {animation: ehp0hnk89mid18_to__to 3000ms linear infinite normal forwards}@keyframes ehp0hnk89mid18_to__to { 0% {transform: translate(604.520000px,144.460503px)} 13.333333% {transform: translate(508.871870px,196.641976px)} 43.333333% {transform: translate(482.228929px,208.644896px)} 53.333333% {transform: translate(484.744279px,204.566222px)} 86.666667% {transform: translate(487.031415px,204.769907px)} 100% {transform: translate(605.683485px,146.062606px)} }#ehp0hnk89mid18_ts {animation: ehp0hnk89mid18_ts__ts 3000ms linear infinite normal forwards}@keyframes ehp0hnk89mid18_ts__ts { 0% {transform: scale(1,1)} 16.666667% {transform: scale(0.299167,0.355468)} 86.666667% {transform: scale(0.300000,0.360000)} 100% {transform: scale(1,1)} }#ehp0hnk89mid18 {animation: ehp0hnk89mid18_c_o 3000ms linear infinite normal forwards}@keyframes ehp0hnk89mid18_c_o { 0% {opacity: 1} 16.666667% {opacity: 0} 86.666667% {opacity: 0} 100% {opacity: 1} }#ehp0hnk89mid22_to {animation: ehp0hnk89mid22_to__to 3000ms linear infinite normal forwards}@keyframes ehp0hnk89mid22_to__to { 0% {transform: translate(582.936000px,435.475006px)} 20% {transform: translate(433.903412px,507.470886px)} 36.666667% {transform: translate(542.806212px,453.553542px)} 100% {transform: translate(542.806212px,453.553542px)} }#ehp0hnk89mid22_ts {animation: ehp0hnk89mid22_ts__ts 3000ms linear infinite normal forwards}@keyframes ehp0hnk89mid22_ts__ts { 0% {transform: scale(0,0)} 20% {transform: scale(1,1)} 36.666667% {transform: scale(0.350822,0.418181)} 100% {transform: scale(0.350822,0.418181)} }#ehp0hnk89mid22 {animation: ehp0hnk89mid22_c_o 3000ms linear infinite normal forwards}@keyframes ehp0hnk89mid22_c_o { 0% {opacity: 0} 20% {opacity: 1} 36.666667% {opacity: 0} 100% {opacity: 0} }]]></style><rect id="ehp0hnk89mid2" width="643.862000" height="412.358000" rx="0" ry="0" transform="matrix(1 0 0 1 111.08000000000015 119.07400628000005)" fill="rgb(230,230,230)" stroke="none" stroke-width="1"/><rect id="ehp0hnk89mid3" width="607.039000" height="336.243000" rx="0" ry="0" transform="matrix(1 0 0 1 129.49100000000016 170.79400628000008)" fill="rgb(255,255,255)" stroke="none" stroke-width="1"/><rect id="ehp0hnk89mid4" width="643.862000" height="27.353600" rx="0" ry="0" transform="matrix(1 0 0 1 110.80500000000018 118.70900627999995)" fill="rgb(108,99,255)" stroke="none" stroke-width="1"/><circle id="ehp0hnk89mid5" r="5.069780" transform="matrix(1 0 0 1 131.13199999999998 132.69360627999995)" fill="rgb(255,255,255)" stroke="none" stroke-width="1"/><circle id="ehp0hnk89mid6" r="5.069780" transform="matrix(1 0 0 1 150.37599999999995 132.69360627999995)" fill="rgb(255,255,255)" stroke="none" stroke-width="1"/><circle id="ehp0hnk89mid7" r="5.069780" transform="matrix(1 0 0 1 169.61999999999998 132.69360627999995)" fill="rgb(255,255,255)" stroke="none" stroke-width="1"/><rect id="ehp0hnk89mid8" width="155.981000" height="266.467000" rx="0" ry="0" transform="matrix(1 0 0 1 184.64899999999994 205.68200628000005)" fill="rgb(108,99,255)" stroke="none" stroke-width="1"/><rect id="ehp0hnk89mid9" width="129.984000" height="73.348000" rx="0" ry="0" transform="matrix(1 0 0 1 367.55500000000018 205.68200628000005)" fill="rgb(108,99,255)" stroke="none" stroke-width="1"/><rect id="ehp0hnk89mid10" width="129.984000" height="78.918700" rx="0" ry="0" transform="matrix(1 0 0 1 367.55500000000018 299.45600628000005)" fill="rgb(230,230,230)" stroke="none" stroke-width="1"/><rect id="ehp0hnk89mid11" width="129.984000" height="73.348000" rx="0" ry="0" transform="matrix(1 0 0 1 367.55500000000018 398.80100628000008)" fill="rgb(230,230,230)" stroke="none" stroke-width="1"/><rect id="ehp0hnk89mid12" width="155.981000" height="116.125000" rx="0" ry="0" transform="matrix(1 0 0 1 525.39300000000014 205.68200628000005)" fill="rgb(230,230,230)" stroke="none" stroke-width="1"/><rect id="ehp0hnk89mid13" width="155.981000" height="116.125000" rx="0" ry="0" transform="matrix(1 0 0 1 525.39300000000014 356.02400628000004)" fill="rgb(108,99,255)" stroke="none" stroke-width="1"/><g id="ehp0hnk89mid14_to" transform="translate(218.520781,325.965875)"><g id="ehp0hnk89mid14_ts" transform="rotate(180.258795) scale(-0.423221,0.396756)"><g id="ehp0hnk89mid14" transform="translate(-184.648972,-318.715126)" opacity="0"><polygon id="ehp0hnk89mid15" points="672.947000,530.706000 415.208000,530.706000 415.208000,528.600000 671.328000,528.600000 715.345000,363.010000 717.381000,363.551000 672.947000,530.706000" transform="matrix(1 0 0 1 -360.05942499999986 -138.67273743999999)" fill="rgb(63,61,86)" stroke="none" stroke-width="1"/><path id="ehp0hnk89mid16" d="M550.148600,675.799870C537.936065,675.799870,528.035850,665.899655,528.035850,653.687120C528.035850,641.474585,537.936065,631.574370,550.148600,631.574370C562.361135,631.574370,572.261350,641.474585,572.261350,653.687120C572.247479,665.893905,562.355385,675.785999,550.148600,675.799870ZM550.148600,633.680350C542.056611,633.680346,534.761409,638.554840,531.664737,646.030862C528.568065,653.506884,530.279760,662.112160,536.001660,667.834060C541.723560,673.555960,550.328836,675.267655,557.804858,672.170983C565.280880,669.074311,570.155374,661.779109,570.155370,653.687120C570.142827,642.642886,561.192834,633.692893,550.148600,633.680350Z" transform="matrix(1 0 0 1 -516.05942499999992 -262.70686372173827)" fill="rgb(63,61,86)" stroke="none" stroke-width="1"/><circle id="ehp0hnk89mid17" r="8.423900" transform="matrix(1 0 0 1 34.08957500000002 390.98026256000014)" fill="rgb(108,99,255)" stroke="none" stroke-width="1"/></g></g></g><g id="ehp0hnk89mid18_to" transform="translate(604.520000,144.460503)"><g id="ehp0hnk89mid18_ts" transform="scale(1,1)"><g id="ehp0hnk89mid18" transform="translate(-604.522522,-144.460503)"><polygon id="ehp0hnk89mid19" points="544.691000,188.755000 542.655000,188.214000 587.089000,21.060000 844.827000,21.060000 844.827000,23.166000 588.708000,23.166000 544.691000,188.755000" transform="matrix(1 0 0 1 -110.80499999999984 50.08300627999995)" fill="rgb(63,61,86)" stroke="none" stroke-width="1"/><path id="ehp0hnk89mid20" d="M1021.887250,168.259620C1009.674715,168.259620,999.774500,158.359405,999.774500,146.146870C999.774500,133.934335,1009.674715,124.034120,1021.887250,124.034120C1034.099785,124.034120,1044,133.934335,1044,146.146870C1043.986129,158.353655,1034.094035,168.245749,1021.887250,168.259620ZM1021.887250,126.140100C1013.795261,126.140096,1006.500059,131.014590,1003.403387,138.490612C1000.306715,145.966634,1002.018410,154.571910,1007.740310,160.293810C1013.462210,166.015710,1022.067486,167.727405,1029.543508,164.630733C1037.019530,161.534061,1041.894024,154.238859,1041.894020,146.146870C1041.881477,135.102636,1032.931484,126.152643,1021.887250,126.140100Z" transform="matrix(1 0 0 1 -266.80499999999995 -73.95112000173833)" fill="rgb(63,61,86)" stroke="none" stroke-width="1"/><circle id="ehp0hnk89mid21" r="8.423900" transform="matrix(1 0 0 1 755.08200000000011 72.19580627999994)" fill="rgb(108,99,255)" stroke="none" stroke-width="1"/></g></g></g><g id="ehp0hnk89mid22_to" transform="translate(582.936000,435.475006)"><g id="ehp0hnk89mid22_ts" transform="scale(0,0)"><g id="ehp0hnk89mid22" transform="translate(-433.903412,-507.470886)" opacity="0"><polygon id="ehp0hnk89mid23" points="672.947000,530.706000 415.208000,530.706000 415.208000,528.600000 671.328000,528.600000 715.345000,363.010000 717.381000,363.551000 672.947000,530.706000" transform="matrix(1 0 0 1 -110.80499999999984 50.08300627999995)" fill="rgb(63,61,86)" stroke="none" stroke-width="1"/><path id="ehp0hnk89mid24" d="M550.148600,675.799870C537.936065,675.799870,528.035850,665.899655,528.035850,653.687120C528.035850,641.474585,537.936065,631.574370,550.148600,631.574370C562.361135,631.574370,572.261350,641.474585,572.261350,653.687120C572.247479,665.893905,562.355385,675.785999,550.148600,675.799870ZM550.148600,633.680350C542.056611,633.680346,534.761409,638.554840,531.664737,646.030862C528.568065,653.506884,530.279760,662.112160,536.001660,667.834060C541.723560,673.555960,550.328836,675.267655,557.804858,672.170983C565.280880,669.074311,570.155374,661.779109,570.155370,653.687120C570.142827,642.642886,561.192834,633.692893,550.148600,633.680350Z" transform="matrix(1 0 0 1 -266.80499999999995 -73.95112000173833)" fill="rgb(63,61,86)" stroke="none" stroke-width="1"/><circle id="ehp0hnk89mid25" r="8.423900" transform="matrix(1 0 0 1 283.34400000000005 579.73600628000008)" fill="rgb(108,99,255)" stroke="none" stroke-width="1"/></g></g></g></svg>