<svg id="e2IvNDO1fMc1" xmlns="http://www.w3.org/2000/svg" xmlns:xlink="http://www.w3.org/1999/xlink" viewBox="0 0 1100.500640 691.706820" shape-rendering="geometricPrecision" text-rendering="geometricPrecision"><style><![CDATA[#e2IvNDO1fMc2_to {animation: e2IvNDO1fMc2_to__to 3000ms linear infinite normal forwards}@keyframes e2IvNDO1fMc2_to__to { 0% {transform: translate(973.217988px,376.951664px)} 50% {transform: translate(973.217988px,276.950000px)} 100% {transform: translate(973.217988px,376.950000px)}} #e2IvNDO1fMc20_to {animation: e2IvNDO1fMc20_to__to 3000ms linear infinite normal forwards}@keyframes e2IvNDO1fMc20_to__to { 0% {transform: translate(343.135258px,380.410000px)} 50% {transform: translate(343.135258px,280.410000px)} 100% {transform: translate(343.135258px,380.410000px)}}]]></style><g id="e2IvNDO1fMc2_to" transform="translate(973.217988,376.951664)"><g id="e2IvNDO1fMc2" transform="translate(-939.310791,-224.680161)"><path id="e2IvNDO1fMc3" d="M1150.250320,388.237430L1148.391730,388.237430L1148.391730,337.321940C1148.391738,329.506387,1145.287021,322.010937,1139.760585,316.484513C1134.234149,310.958088,1126.738693,307.853386,1118.923140,307.853410L1011.051860,307.853410C1003.236307,307.853386,995.740851,310.958088,990.214415,316.484513C984.687979,322.010937,981.583262,329.506387,981.583270,337.321940L981.583270,616.648270C981.583262,624.463824,984.687979,631.959274,990.214414,637.485701C995.740850,643.012127,1003.236306,646.116831,1011.051860,646.116810L1118.923140,646.116810C1126.738694,646.116831,1134.234150,643.012127,1139.760586,637.485701C1145.287021,631.959274,1148.391738,624.463824,1148.391730,616.648270L1148.391730,424.479940L1150.250320,424.479940Z" transform="matrix(1 0 0 1 -126.60599256542969 -252.30495720652362)" fill="rgb(63,61,86)" stroke="none" stroke-width="1"/><path id="e2IvNDO1fMc4" d="M1142.121000,339.053420L1142.121000,617.973420C1142.120387,630.128953,1132.266533,639.982807,1120.111000,639.983420L1011.721000,639.983420C1005.884706,639.982763,1000.287786,637.663328,996.161841,633.535507C992.035896,629.407687,989.719005,623.809714,989.721000,617.973420L989.721000,339.053420C989.721171,326.903226,999.570806,317.053591,1011.721000,317.053420L1024.871000,317.053420C1023.560703,320.276859,1023.938969,323.940827,1025.880181,326.828581C1027.821394,329.716336,1031.071428,331.449838,1034.551000,331.453420L1096.351000,331.453420C1099.834542,331.460000,1103.091870,329.728701,1105.035290,326.837642C1106.978710,323.946583,1107.352158,320.276689,1106.030930,317.053420L1120.111000,317.053420C1132.263125,317.052834,1142.116064,326.901296,1142.121000,339.053420Z" transform="matrix(1 0 0 1 -126.60599256542969 -252.30495720652362)" fill="rgb(241,241,241)" stroke="none" stroke-width="1"/><rect id="e2IvNDO1fMc5" width="126" height="34" rx="0" ry="0" transform="matrix(1 0 0 1 868.99468700000000 207.54863397999983)" fill="rgb(108,99,255)" stroke="none" stroke-width="1"/><path id="e2IvNDO1fMc6" d="M1126.601000,487.853410L1004.601000,487.853410C1002.944895,487.851602,1001.602808,486.509515,1001.601000,484.853410L1001.601000,454.853410C1001.602808,453.197305,1002.944895,451.855218,1004.601000,451.853410L1126.601000,451.853410C1128.257105,451.855218,1129.599192,453.197305,1129.601000,454.853410L1129.601000,484.853410C1129.599192,486.509515,1128.257105,487.851602,1126.601000,487.853410ZM1004.601000,453.853410C1004.048944,453.853961,1003.601551,454.301354,1003.601000,454.853410L1003.601000,484.853410C1003.601370,485.405542,1004.048868,485.853040,1004.601000,485.853410L1126.601000,485.853410C1127.153132,485.853040,1127.600630,485.405542,1127.601000,484.853410L1127.601000,454.853410C1127.600449,454.301354,1127.153056,453.853961,1126.601000,453.853410Z" transform="matrix(1 0 0 1 -126.60599256542969 -252.30495720652362)" fill="rgb(63,61,86)" stroke="none" stroke-width="1"/><rect id="e2IvNDO1fMc7" width="16" height="2" rx="0" ry="0" transform="matrix(1 0 0 1 882.99468700000000 226.54863397999981)" fill="rgb(63,61,86)" stroke="none" stroke-width="1"/><rect id="e2IvNDO1fMc8" width="16" height="2" rx="0" ry="0" transform="matrix(1 0 0 1 904.99468700000000 226.54863397999981)" fill="rgb(63,61,86)" stroke="none" stroke-width="1"/><rect id="e2IvNDO1fMc9" width="16" height="2" rx="0" ry="0" transform="matrix(1 0 0 1 926.99368700000002 226.54863397999981)" fill="rgb(63,61,86)" stroke="none" stroke-width="1"/><rect id="e2IvNDO1fMc10" width="16" height="2" rx="0" ry="0" transform="matrix(1 0 0 1 948.99368699999991 226.54863397999981)" fill="rgb(63,61,86)" stroke="none" stroke-width="1"/><rect id="e2IvNDO1fMc11" width="16" height="2" rx="0" ry="0" transform="matrix(1 0 0 1 970.99368699999980 226.54863397999981)" fill="rgb(63,61,86)" stroke="none" stroke-width="1"/><circle id="e2IvNDO1fMc12" r="11" transform="matrix(1 0 0 1 920.99468700000000 123.54863397999983)" fill="rgb(63,61,86)" stroke="none" stroke-width="1"/><g id="e2IvNDO1fMc13" transform="matrix(0.88281705566029 0 0 0.99128640451735 600.84738121289433 -448.41473953968472)"><rect id="e2IvNDO1fMc14" width="16" height="2" rx="0" ry="0" transform="matrix(1 0 0 1 329.56059699999986 767.81186407999996)" fill="rgb(63,61,86)" stroke="none" stroke-width="1"/><rect id="e2IvNDO1fMc15" width="16" height="2" rx="0" ry="0" transform="matrix(1 0 0 1 351.56059699999986 767.81186407999996)" fill="rgb(63,61,86)" stroke="none" stroke-width="1"/><rect id="e2IvNDO1fMc16" width="16" height="2" rx="0" ry="0" transform="matrix(1 0 0 1 373.56059699999986 767.81186407999996)" fill="rgb(63,61,86)" stroke="none" stroke-width="1"/><rect id="e2IvNDO1fMc17" width="16" height="2" rx="0" ry="0" transform="matrix(1 0 0 1 395.56059699999986 767.81186407999996)" fill="rgb(63,61,86)" stroke="none" stroke-width="1"/><rect id="e2IvNDO1fMc18" width="16" height="2" rx="0" ry="0" transform="matrix(1 0 0 1 417.56059699999986 767.81186407999996)" fill="rgb(63,61,86)" stroke="none" stroke-width="1"/><path id="e2IvNDO1fMc19" d="M453.601000,680.853410L318.601000,680.853410C316.944895,680.851602,315.602808,679.509515,315.601000,677.853410L315.601000,643.853410C315.602808,642.197305,316.944895,640.855218,318.601000,640.853410L453.601000,640.853410C455.257105,640.855218,456.599192,642.197305,456.601000,643.853410L456.601000,677.853410C456.599192,679.509515,455.257105,680.851602,453.601000,680.853410ZM318.601000,642.853410C318.048944,642.853961,317.601551,643.301354,317.601000,643.853410L317.601000,677.853410C317.601551,678.405466,318.048944,678.852859,318.601000,678.853410L453.601000,678.853410C454.153056,678.852859,454.600449,678.405466,454.601000,677.853410L454.601000,643.853410C454.600449,643.301354,454.153056,642.853961,453.601000,642.853410Z" transform="matrix(1 0 0 1 -4.54008256542969 100.95827289347659)" fill="rgb(63,61,86)" stroke="none" stroke-width="1"/></g></g></g><g id="e2IvNDO1fMc20_to" transform="translate(343.135258,380.410000)"><g id="e2IvNDO1fMc20" transform="translate(-343.135258,-380.406036)"><path id="e2IvNDO1fMc21" d="M600.342680,108.464350L390.853000,108.464350L390.853000,104.146590L295.862170,104.146590L295.862170,108.464350L85.508900,108.464350C81.750675,108.464347,78.146377,109.957295,75.488911,112.614761C72.831445,115.272227,71.338497,118.876525,71.338500,122.634750L71.338500,409.490600C71.338489,417.316708,77.682792,423.661033,85.508900,423.661050L600.342680,423.661050C608.168786,423.661028,614.513086,417.316706,614.513080,409.490600L614.513080,122.634750C614.513083,118.876525,613.020135,115.272227,610.362669,112.614761C607.705203,109.957295,604.100905,108.464347,600.342680,108.464350Z" transform="matrix(1 0 0 1 -4.54008256542969 100.95827289347659)" fill="rgb(63,61,86)" stroke="none" stroke-width="1"/><rect id="e2IvNDO1fMc22" width="505.170000" height="284.980000" rx="0" ry="0" transform="matrix(1 0 0 1 85.80089699999985 234.46166408000008)" fill="rgb(241,241,241)" stroke="none" stroke-width="1"/><circle id="e2IvNDO1fMc23" r="5.181320" transform="matrix(1 0 0 1 337.95359699999989 221.51236408000003)" fill="rgb(108,99,255)" stroke="none" stroke-width="1"/><path id="e2IvNDO1fMc24" d="M240.601000,239.853410L228.601000,239.853410C226.944895,239.851602,225.602808,238.509515,225.601000,236.853410L225.601000,224.853410C225.602808,223.197305,226.944895,221.855218,228.601000,221.853410L240.601000,221.853410C242.257105,221.855218,243.599192,223.197305,243.601000,224.853410L243.601000,236.853410C243.599192,238.509515,242.257105,239.851602,240.601000,239.853410ZM228.601000,223.853410C228.049012,223.854126,227.601716,224.301422,227.601000,224.853410L227.601000,236.853410C227.601716,237.405398,228.049012,237.852694,228.601000,237.853410L240.601000,237.853410C241.152988,237.852694,241.600284,237.405398,241.601000,236.853410L241.601000,224.853410C241.600284,224.301422,241.152988,223.854126,240.601000,223.853410Z" transform="matrix(1 0 0 1 -4.54008256542969 100.95827289347659)" fill="rgb(63,61,86)" stroke="none" stroke-width="1"/><rect id="e2IvNDO1fMc25" width="228" height="2" rx="0" ry="0" transform="matrix(1 0 0 1 222.06059699999986 338.81186408000002)" fill="rgb(63,61,86)" stroke="none" stroke-width="1"/><rect id="e2IvNDO1fMc26" width="53" height="16" rx="0" ry="0" transform="matrix(1 0 0 1 391.06059699999986 393.81186408000008)" fill="rgb(108,99,255)" stroke="none" stroke-width="1"/><path id="e2IvNDO1fMc27" d="M452.601000,304.853410L403.601000,304.853410C401.944895,304.851602,400.602808,303.509515,400.601000,301.853410L400.601000,289.853410C400.602808,288.197305,401.944895,286.855218,403.601000,286.853410L452.601000,286.853410C454.257105,286.855218,455.599192,288.197305,455.601000,289.853410L455.601000,301.853410C455.599192,303.509515,454.257105,304.851602,452.601000,304.853410ZM403.601000,288.853410C403.049012,288.854126,402.601716,289.301422,402.601000,289.853410L402.601000,301.853410C402.601716,302.405398,403.049012,302.852694,403.601000,302.853410L452.601000,302.853410C453.152988,302.852694,453.600284,302.405398,453.601000,301.853410L453.601000,289.853410C453.600284,289.301422,453.152988,288.854126,452.601000,288.853410Z" transform="matrix(1 0 0 1 -4.54008256542969 100.95827289347659)" fill="rgb(63,61,86)" stroke="none" stroke-width="1"/><path id="e2IvNDO1fMc28" d="M628.697390,413.298400L579.395270,413.298400L579.395270,409.746220C579.395275,409.559423,579.321073,409.380275,579.188989,409.248188C579.056904,409.116102,578.877757,409.041897,578.690960,409.041900L561.787370,409.041900C561.600572,409.041895,561.421423,409.116098,561.289338,409.248185C561.157253,409.380272,561.083052,409.559422,561.083060,409.746220L561.083060,413.298400L550.518320,413.298400L550.518320,409.746220C550.518325,409.559421,550.444122,409.380271,550.312035,409.248185C550.179949,409.116098,550.000799,409.041895,549.814000,409.041900L532.910420,409.041900C532.723621,409.041895,532.544471,409.116098,532.412385,409.248185C532.280298,409.380271,532.206095,409.559421,532.206100,409.746220L532.206100,413.298400L521.641360,413.298400L521.641360,409.746220C521.641368,409.559422,521.567167,409.380272,521.435082,409.248185C521.302997,409.116098,521.123848,409.041895,520.937050,409.041900L504.033470,409.041900C503.846671,409.041895,503.667521,409.116098,503.535435,409.248185C503.403348,409.380271,503.329145,409.559421,503.329150,409.746220L503.329150,413.298400L492.764410,413.298400L492.764410,409.746220C492.764415,409.559421,492.690212,409.380271,492.558125,409.248185C492.426039,409.116098,492.246889,409.041895,492.060090,409.041900L475.156510,409.041900C474.969712,409.041895,474.790563,409.116098,474.658478,409.248185C474.526393,409.380272,474.452192,409.559422,474.452200,409.746220L474.452200,413.298400L463.887460,413.298400L463.887460,409.746220C463.887465,409.559421,463.813262,409.380271,463.681175,409.248185C463.549089,409.116098,463.369939,409.041895,463.183140,409.041900L446.279560,409.041900C446.092761,409.041895,445.913611,409.116098,445.781525,409.248185C445.649438,409.380271,445.575235,409.559421,445.575240,409.746220L445.575240,413.298400L435.010500,413.298400L435.010500,409.746220C435.010508,409.559422,434.936307,409.380272,434.804222,409.248185C434.672137,409.116098,434.492988,409.041895,434.306190,409.041900L417.402600,409.041900C417.215803,409.041897,417.036656,409.116102,416.904571,409.248188C416.772487,409.380275,416.698285,409.559423,416.698290,409.746220L416.698290,413.298400L406.133550,413.298400L406.133550,409.746220C406.133555,409.559421,406.059352,409.380271,405.927265,409.248185C405.795179,409.116098,405.616029,409.041895,405.429230,409.041900L273.017840,409.041900C272.831041,409.041895,272.651891,409.116098,272.519805,409.248185C272.387718,409.380271,272.313515,409.559421,272.313520,409.746220L272.313520,413.298400L261.748780,413.298400L261.748780,409.746220C261.748785,409.559421,261.674582,409.380271,261.542495,409.248185C261.410409,409.116098,261.231259,409.041895,261.044460,409.041900L244.140880,409.041900C243.954082,409.041895,243.774933,409.116098,243.642848,409.248185C243.510763,409.380272,243.436562,409.559422,243.436570,409.746220L243.436570,413.298400L232.871830,413.298400L232.871830,409.746220C232.871835,409.559421,232.797632,409.380271,232.665545,409.248185C232.533459,409.116098,232.354309,409.041895,232.167510,409.041900L215.263930,409.041900C215.077131,409.041895,214.897981,409.116098,214.765895,409.248185C214.633808,409.380271,214.559605,409.559421,214.559610,409.746220L214.559610,413.298400L203.994870,413.298400L203.994870,409.746220C203.994878,409.559422,203.920677,409.380272,203.788592,409.248185C203.656507,409.116098,203.477358,409.041895,203.290560,409.041900L186.387000,409.041900C186.200203,409.041897,186.021056,409.116102,185.888971,409.248188C185.756887,409.380275,185.682685,409.559423,185.682690,409.746220L185.682690,413.298400L175.117920,413.298400L175.117920,409.746220C175.117925,409.559421,175.043722,409.380271,174.911635,409.248185C174.779549,409.116098,174.600399,409.041895,174.413600,409.041900L157.510000,409.041900C157.323201,409.041895,157.144051,409.116098,157.011965,409.248185C156.879878,409.380271,156.805675,409.559421,156.805680,409.746220L156.805680,413.298400L146.241000,413.298400L146.241000,409.746220C146.241005,409.559421,146.166802,409.380271,146.034715,409.248185C145.902629,409.116098,145.723479,409.041895,145.536680,409.041900L128.633070,409.041900C128.446271,409.041895,128.267121,409.116098,128.135035,409.248185C128.002948,409.380271,127.928745,409.559421,127.928750,409.746220L127.928750,413.298400L117.364000,413.298400L117.364000,409.746220C117.364005,409.559423,117.289803,409.380275,117.157719,409.248188C117.025634,409.116102,116.846487,409.041897,116.659690,409.041900L99.756110,409.041900C99.569312,409.041895,99.390163,409.116098,99.258078,409.248185C99.125993,409.380272,99.051792,409.559422,99.051800,409.746220L99.051800,413.298400L66.653260,413.298400C62.170149,413.298403,57.870656,415.079314,54.700620,418.249354C51.530584,421.419394,49.749677,425.718889,49.749680,430.202000L49.749680,437.845400C49.749702,447.180974,57.317686,454.748940,66.653260,454.748940L628.697390,454.748940C633.180498,454.748948,637.479993,452.968048,640.650035,449.798017C643.820077,446.627987,645.600992,442.328498,645.601000,437.845390L645.601000,430.202000C645.601003,425.718884,643.820092,421.419384,640.650050,418.249343C637.480007,415.079303,633.180506,413.298395,628.697390,413.298400Z" transform="matrix(1 0 0 1 -4.54008256542969 100.95827289347659)" fill="rgb(63,61,86)" stroke="none" stroke-width="1"/><path id="e2IvNDO1fMc29" d="M474.601000,321.853410L210.601000,321.853410C208.944895,321.851602,207.602808,320.509515,207.601000,318.853410L207.601000,208.853410C207.602808,207.197305,208.944895,205.855218,210.601000,205.853410L474.601000,205.853410C476.257105,205.855218,477.599192,207.197305,477.601000,208.853410L477.601000,318.853410C477.599192,320.509515,476.257105,321.851602,474.601000,321.853410ZM210.601000,207.853410C210.049012,207.854126,209.601716,208.301422,209.601000,208.853410L209.601000,318.853410C209.601716,319.405398,210.049012,319.852694,210.601000,319.853410L474.601000,319.853410C475.152988,319.852694,475.600284,319.405398,475.601000,318.853410L475.601000,208.853410C475.600284,208.301422,475.152988,207.854126,474.601000,207.853410Z" transform="matrix(1 0 0 1 -4.54008256542969 100.95827289347659)" fill="rgb(63,61,86)" stroke="none" stroke-width="1"/><path id="e2IvNDO1fMc30" d="M240.601000,269.853410L228.601000,269.853410C226.944895,269.851602,225.602808,268.509515,225.601000,266.853410L225.601000,254.853410C225.602808,253.197305,226.944895,251.855218,228.601000,251.853410L240.601000,251.853410C242.257105,251.855218,243.599192,253.197305,243.601000,254.853410L243.601000,266.853410C243.599192,268.509515,242.257105,269.851602,240.601000,269.853410ZM228.601000,253.853410C228.049012,253.854126,227.601716,254.301422,227.601000,254.853410L227.601000,266.853410C227.601716,267.405398,228.049012,267.852694,228.601000,267.853410L240.601000,267.853410C241.152988,267.852694,241.600284,267.405398,241.601000,266.853410L241.601000,254.853410C241.600284,254.301422,241.152988,253.854126,240.601000,253.853410Z" transform="matrix(1 0 0 1 -4.54008256542969 100.95827289347659)" fill="rgb(63,61,86)" stroke="none" stroke-width="1"/><rect id="e2IvNDO1fMc31" width="228" height="2" rx="0" ry="0" transform="matrix(1 0 0 1 222.06059699999986 368.81186408000008)" fill="rgb(63,61,86)" stroke="none" stroke-width="1"/><circle id="e2IvNDO1fMc32" r="14" transform="matrix(1 0 0 1 310.06059699999986 474.81186408000008)" fill="rgb(63,61,86)" stroke="none" stroke-width="1"/></g></g></svg>