<svg id="visual" viewBox="0 0 900 600" xmlns="http://www.w3.org/2000/svg" xmlns:xlink="http://www.w3.org/1999/xlink" version="1.1"><path d="M0 31L13.7 36C27.3 41 54.7 51 82 51C109.3 51 136.7 41 163.8 46C191 51 218 71 245.2 76C272.3 81 299.7 71 327 66C354.3 61 381.7 61 409 56C436.3 51 463.7 41 491 41C518.3 41 545.7 51 573 53C600.3 55 627.7 49 654.8 50C682 51 709 59 736.2 64C763.3 69 790.7 71 818 65C845.3 59 872.7 45 886.3 38L900 31L900 0L886.3 0C872.7 0 845.3 0 818 0C790.7 0 763.3 0 736.2 0C709 0 682 0 654.8 0C627.7 0 600.3 0 573 0C545.7 0 518.3 0 491 0C463.7 0 436.3 0 409 0C381.7 0 354.3 0 327 0C299.7 0 272.3 0 245.2 0C218 0 191 0 163.8 0C136.7 0 109.3 0 82 0C54.7 0 27.3 0 13.7 0L0 0Z" fill="#5ea5eb"></path><path d="M0 67L13.7 72C27.3 77 54.7 87 82 89C109.3 91 136.7 85 163.8 94C191 103 218 127 245.2 136C272.3 145 299.7 139 327 129C354.3 119 381.7 105 409 96C436.3 87 463.7 83 491 88C518.3 93 545.7 107 573 107C600.3 107 627.7 93 654.8 92C682 91 709 103 736.2 113C763.3 123 790.7 131 818 130C845.3 129 872.7 119 886.3 114L900 109L900 29L886.3 36C872.7 43 845.3 57 818 63C790.7 69 763.3 67 736.2 62C709 57 682 49 654.8 48C627.7 47 600.3 53 573 51C545.7 49 518.3 39 491 39C463.7 39 436.3 49 409 54C381.7 59 354.3 59 327 64C299.7 69 272.3 79 245.2 74C218 69 191 49 163.8 44C136.7 39 109.3 49 82 49C54.7 49 27.3 39 13.7 34L0 29Z" fill="#6db2f3"></path><path d="M0 163L13.7 169C27.3 175 54.7 187 82 184C109.3 181 136.7 163 163.8 167C191 171 218 197 245.2 207C272.3 217 299.7 211 327 202C354.3 193 381.7 181 409 179C436.3 177 463.7 185 491 185C518.3 185 545.7 177 573 176C600.3 175 627.7 181 654.8 188C682 195 709 203 736.2 211C763.3 219 790.7 227 818 226C845.3 225 872.7 215 886.3 210L900 205L900 107L886.3 112C872.7 117 845.3 127 818 128C790.7 129 763.3 121 736.2 111C709 101 682 89 654.8 90C627.7 91 600.3 105 573 105C545.7 105 518.3 91 491 86C463.7 81 436.3 85 409 94C381.7 103 354.3 117 327 127C299.7 137 272.3 143 245.2 134C218 125 191 101 163.8 92C136.7 83 109.3 89 82 87C54.7 85 27.3 75 13.7 70L0 65Z" fill="#7bbffb"></path><path d="M0 361L13.7 362C27.3 363 54.7 365 82 352C109.3 339 136.7 311 163.8 304C191 297 218 311 245.2 327C272.3 343 299.7 361 327 368C354.3 375 381.7 371 409 357C436.3 343 463.7 319 491 303C518.3 287 545.7 279 573 284C600.3 289 627.7 307 654.8 329C682 351 709 377 736.2 377C763.3 377 790.7 351 818 334C845.3 317 872.7 309 886.3 305L900 301L900 203L886.3 208C872.7 213 845.3 223 818 224C790.7 225 763.3 217 736.2 209C709 201 682 193 654.8 186C627.7 179 600.3 173 573 174C545.7 175 518.3 183 491 183C463.7 183 436.3 175 409 177C381.7 179 354.3 191 327 200C299.7 209 272.3 215 245.2 205C218 195 191 169 163.8 165C136.7 161 109.3 179 82 182C54.7 185 27.3 173 13.7 167L0 161Z" fill="#8bc9ff"></path><path d="M0 475L13.7 477C27.3 479 54.7 483 82 493C109.3 503 136.7 519 163.8 531C191 543 218 551 245.2 539C272.3 527 299.7 495 327 481C354.3 467 381.7 471 409 473C436.3 475 463.7 475 491 485C518.3 495 545.7 515 573 512C600.3 509 627.7 483 654.8 482C682 481 709 505 736.2 518C763.3 531 790.7 533 818 522C845.3 511 872.7 487 886.3 475L900 463L900 299L886.3 303C872.7 307 845.3 315 818 332C790.7 349 763.3 375 736.2 375C709 375 682 349 654.8 327C627.7 305 600.3 287 573 282C545.7 277 518.3 285 491 301C463.7 317 436.3 341 409 355C381.7 369 354.3 373 327 366C299.7 359 272.3 341 245.2 325C218 309 191 295 163.8 302C136.7 309 109.3 337 82 350C54.7 363 27.3 361 13.7 360L0 359Z" fill="#9bd0ff"></path><path d="M0 601L13.7 601C27.3 601 54.7 601 82 601C109.3 601 136.7 601 163.8 601C191 601 218 601 245.2 601C272.3 601 299.7 601 327 601C354.3 601 381.7 601 409 601C436.3 601 463.7 601 491 601C518.3 601 545.7 601 573 601C600.3 601 627.7 601 654.8 601C682 601 709 601 736.2 601C763.3 601 790.7 601 818 601C845.3 601 872.7 601 886.3 601L900 601L900 461L886.3 473C872.7 485 845.3 509 818 520C790.7 531 763.3 529 736.2 516C709 503 682 479 654.8 480C627.7 481 600.3 507 573 510C545.7 513 518.3 493 491 483C463.7 473 436.3 473 409 471C381.7 469 354.3 465 327 479C299.7 493 272.3 525 245.2 537C218 549 191 541 163.8 529C136.7 517 109.3 501 82 491C54.7 481 27.3 477 13.7 475L0 473Z" fill="#abd8ff"></path></svg>